<?xml version="1.0" standalone="no"?>
<svg id="SvgjsSvg1001" width="600" height="600" xmlns="http://www.w3.org/2000/svg" version="1.1" xmlns:xlink="http://www.w3.org/1999/xlink" xmlns:svgjs="http://svgjs.com/svgjs" class="svg-paper" viewBox="0 0 600 600"><title id="SvgjsTitle3209">x=max(y,x/sqrt(x*x + y*y))|y=x|dTest=0.1|sd=0.2|sm=1|ts=0.05 | generated with FlowLines</title><g id="SvgjsG3210"><polyline id="SvgjsPolyline3211" points="0.45,144.61 19.16,185.52 31.73,222.42 39.77,260.55 42.34,296.43 38.58,341.22 16.52,450 0.38,544.63" fill="none" stroke="#000000" stroke-width="1"/><polyline id="SvgjsPolyline3212" points="0.11,121.15 25.68,168.69 43.94,213.05 55.27,256.56 59.11,295.33 58.6,316.32 55.83,340.15 28.17,472.27 7.36,599.57" fill="none" stroke="#000000" stroke-width="1"/><polyline id="SvgjsPolyline3213" points="0.61,170.97 13.49,204.58 23.1,239.26 28.38,271.81 29.84,301.76 25.86,346.54 0.4,479.11" fill="none" stroke="#000000" stroke-width="1"/><polyline id="SvgjsPolyline3214" points="0.08,100.22 32.81,154.03 55.99,202.77 70.36,248.51 75.98,290.08 75.76,314.07 72.5,340.86 43.91,469.7 21.88,599.84" fill="none" stroke="#000000" stroke-width="1"/><polyline id="SvgjsPolyline3215" points="2.8,553.32 0.12,571.12" fill="none" stroke="#000000" stroke-width="1"/><polyline id="SvgjsPolyline3216" points="0.84,202.65 13.1,252.11 17.13,299.89 14.06,341.74 0.03,415.41" fill="none" stroke="#000000" stroke-width="1"/><polyline id="SvgjsPolyline3217" points="0.79,81.74 41.03,141.42 69.53,194.18 79.86,219.12 87.19,241.96 92.36,265.39 94.8,286.24 95.01,310.22 91.94,337.03 61.6,465.47 38.12,598.4" fill="none" stroke="#000000" stroke-width="1"/><polyline id="SvgjsPolyline3218" points="0.36,245.45 4.06,272.18 5.37,299.14 4.22,326.11 0.13,355.82" fill="none" stroke="#000000" stroke-width="1"/><polyline id="SvgjsPolyline3219" points="0.72,63.23 50.66,130.75 83.5,184.48 95.4,208.71 105.3,233.82 111.89,256.89 115.86,280.54 116.74,307.5 113.71,334.31 81.1,462.18 67.5,529.82 56,597.86" fill="none" stroke="#000000" stroke-width="1"/><polyline id="SvgjsPolyline3220" points="1.89,47.01 63.83,124.22 102.58,181.28 117.14,207.5 128.27,232.09 135.92,254.83 140.78,278.31 142.17,305.24 139.04,332.03 116.85,406.77 102.62,461.96 89.43,523.56 76.34,597.41" fill="none" stroke="#000000" stroke-width="1"/><polyline id="SvgjsPolyline3221" points="57.45,126.42 90.13,176.71 111.63,219.59 124.59,259.49 128.18,280.17 129.32,298.13 128.57,316.1 125.39,336.85 104.86,408.97 91.23,464.31 78.47,526 65.7,599.9" fill="none" stroke="#000000" stroke-width="1"/><polyline id="SvgjsPolyline3222" points="0.49,28.53 77.3,116.77 126.39,181.18 144.11,209.01 156.72,232.87 165.7,255.11 171.58,278.35 173.4,302.25 170.14,329.01 144.78,402.71 129.75,454.57 113.54,524.71 99.9,598.46" fill="none" stroke="#000000" stroke-width="1"/><polyline id="SvgjsPolyline3223" points="52.72,97.51 96.55,154.62 128.59,205.3 139.4,226.72 148.27,249.01 153.82,269.25 156.75,290.03 156.67,311.01 153.61,331.77 129.91,406.04 116.47,455.23 101.4,522.56 87.5,599.31" fill="none" stroke="#000000" stroke-width="1"/><polyline id="SvgjsPolyline3224" points="0.58,12.26 101.28,119.35 163.95,192.05 185.48,220.89 199.88,243.72 210.23,265.35 215.38,282.58 217.12,303.45 213.74,324.13 207.58,341.03 183.33,392.58 165.53,443.54 146.53,516.08 130.19,598.47" fill="none" stroke="#000000" stroke-width="1"/><polyline id="SvgjsPolyline3225" points="44.42,67.53 111.42,144.43 154.86,201.82 170.71,227.28 181.45,248.73 188.55,268.47 192.2,286.08 192.87,307.04 189.56,327.75 184.07,344.88 162.65,397.68 145.61,452.06 129.89,516.15 114.02,598.63" fill="none" stroke="#000000" stroke-width="1"/><polyline id="SvgjsPolyline3226" points="4.49,0.19 144.21,136.21 221.83,206.9 245.34,225.53 265.38,238.71 284.57,247.12 299.35,249.42 314.17,247.47 330.84,240.76 351.17,228.05 377.17,207.73 457.02,135.04 594.58,1.1" fill="none" stroke="#000000" stroke-width="1"/><polyline id="SvgjsPolyline3227" points="42.99,47.26 147.48,154.88 208.29,221.22 239.35,261.62 247.9,277.44 252.32,291.73 252.57,306.67 248.53,321.08 212.03,383.01 199.82,410.4 187.55,444.24 168.22,513.57 150.63,598.76" fill="none" stroke="#000000" stroke-width="1"/><polyline id="SvgjsPolyline3228" points="170.9,189.16 200.87,226.64 220.29,256.92 230.51,281.84 232.63,293.64 232.69,305.62 226.99,328.85 196.87,387.51 175.94,443.71 157.12,513.19 139.83,598.44" fill="none" stroke="#000000" stroke-width="1"/><polyline id="SvgjsPolyline3229" points="176.76,219.92 191.47,246.04 200.14,268.4 204.67,291.93 204.15,312.88 198.38,336.13 173.48,393.97 154.72,450.94 137.28,520.79 122.41,597.35" fill="none" stroke="#000000" stroke-width="1"/><polyline id="SvgjsPolyline3230" points="20.99,0.53 123.62,92.77 165.42,126.95 199.3,151.76 227.33,169.17 254.4,182.04 277.37,188.88 301.22,191.2 325,188.37 347.86,181.14 374.79,167.98 402.7,150.39 434.13,127.3 473.66,95.08 578.59,0.92" fill="none" stroke="#000000" stroke-width="1"/><polyline id="SvgjsPolyline3231" points="62.46,48.04 151.14,128.87 187.98,159.65 216.72,181.32 241.99,197.46 263.56,207.93 283.67,213.88 301.57,215.43 319.41,213.25 339.34,206.74 363.32,194.37 388.29,177.75 455.71,122.82 548.46,37.55" fill="none" stroke="#000000" stroke-width="1"/><polyline id="SvgjsPolyline3232" points="173.27,172.39 274.61,270.4 291.62,282.63 297.28,284.55 303.24,284.44 322.79,276.92 342.11,262.8 463.36,138.01" fill="none" stroke="#000000" stroke-width="1"/><polyline id="SvgjsPolyline3233" points="198.65,177.91 231.99,203.43 260.26,220.41 282.65,228.9 303.48,230.96 324.03,226.98 348.51,215.69 375.96,197.41 408.78,171.21" fill="none" stroke="#000000" stroke-width="1"/><polyline id="SvgjsPolyline3234" points="248.22,236.98 275.36,255.64 289.18,261.41 301.04,262.95 312.8,260.81 323.77,255.99 338.91,246.28 357.74,231.4" fill="none" stroke="#000000" stroke-width="1"/><polyline id="SvgjsPolyline3235" points="471.57,137.22 599.04,5.92" fill="none" stroke="#000000" stroke-width="1"/><polyline id="SvgjsPolyline3236" points="234.46,241.73 251.68,262.52 263.29,280 268.63,293.96 268.66,305.88 260.33,325.03 236.86,356.15 224.13,376.48 201.83,425.61 190.22,459.68 178.85,500.1 157.49,599.82" fill="none" stroke="#000000" stroke-width="1"/><polyline id="SvgjsPolyline3237" points="37.49,0.39 125.16,73.23 161.43,99.86 194.21,120.98 223.32,136.49 248.34,146.62 274.46,153.34 298.33,155.57 322.24,153.88 348.49,147.66 376.37,136.63 405.5,121.15 438.28,100.05 474.57,73.44 562.25,0.61" fill="none" stroke="#000000" stroke-width="1"/><polyline id="SvgjsPolyline3238" points="86.63,51.85 156.63,108.38 186.08,129.08 214.22,146.31 238.36,158.37 260.88,166.62 281.38,171.13 302.31,172.46 323.19,170.39 343.53,165.26 365.85,156.48 392.4,142.53 420.2,124.76 449.34,103.63 523.49,42.69" fill="none" stroke="#000000" stroke-width="1"/><polyline id="SvgjsPolyline3239" points="215.52,172.45 241.44,187.53 263.55,196.8 286.89,202.26 307.84,202.82 328.47,199.04 350.9,190.58 374.62,177.73 402.01,159.33" fill="none" stroke="#000000" stroke-width="1"/><polyline id="SvgjsPolyline3240" points="271.92,276.56 281.49,291.74 283.09,303.42 278.14,314.28 263.11,332.96" fill="none" stroke="#000000" stroke-width="1"/><polyline id="SvgjsPolyline3241" points="289.15,289.17 297.25,298 298,300.75 285.89,313.99" fill="none" stroke="#000000" stroke-width="1"/><polyline id="SvgjsPolyline3242" points="303.4,295.62 326.38,289.02 346.27,275.72 358.91,262.93 404.33,207.11" fill="none" stroke="#000000" stroke-width="1"/><polyline id="SvgjsPolyline3243" points="410.86,208.34 468.65,143.33" fill="none" stroke="#000000" stroke-width="1"/><polyline id="SvgjsPolyline3244" points="299.5,367.11 350.98,321.23 369.53,301.64 388.94,274.98 420.62,220.57 451.04,179.65 509.66,111.37 599.58,14.74" fill="none" stroke="#000000" stroke-width="1"/><polyline id="SvgjsPolyline3245" points="264.92,339.98 248.74,357.67 235.3,377.54 222.72,401.42 209.96,431.84 198.39,465.92 187.06,506.36 167.45,597.25" fill="none" stroke="#000000" stroke-width="1"/><polyline id="SvgjsPolyline3246" points="56.23,1.68 130.04,58.22 165.05,81.41 193.68,97.82 223.55,111.81 249.05,120.64 275.43,126.29 299.35,128.03 323.28,126.47 349.7,121 378.02,111.16 405.17,98.42 433.84,82.09 468.89,58.97 545.08,0.6" fill="none" stroke="#000000" stroke-width="1"/><polyline id="SvgjsPolyline3247" points="115.81,57.8 172.46,97.15 220.02,122.64 245.18,132.4 265.44,137.89 286.19,141.01 307.17,141.45 328.03,139.15 348.46,134.37 371.09,126.39 392.9,116.38 444.4,85.67 504.73,41.15" fill="none" stroke="#000000" stroke-width="1"/><polyline id="SvgjsPolyline3248" points="302.7,317.3 288.79,322.83 271.62,334.88" fill="none" stroke="#000000" stroke-width="1"/><polyline id="SvgjsPolyline3249" points="301.95,307.41 316.64,304.42 327.87,300.22 350.3,285.36 368.71,265.66 398.13,224.03" fill="none" stroke="#000000" stroke-width="1"/><polyline id="SvgjsPolyline3250" points="298.83,386.57 319.74,361.07 356.05,325.26" fill="none" stroke="#000000" stroke-width="1"/><polyline id="SvgjsPolyline3251" points="301.94,349.25 284.88,366.11 270.32,385.16 256.74,408.48 244.27,435.75 231.91,469.56 220.79,506.94 200.27,597.62" fill="none" stroke="#000000" stroke-width="1"/><polyline id="SvgjsPolyline3252" points="306.7,343.39 338.89,321.38 355.07,308.01" fill="none" stroke="#000000" stroke-width="1"/><polyline id="SvgjsPolyline3253" points="363.7,325.33 380.66,304.33 394.2,284.52 435.02,211.18" fill="none" stroke="#000000" stroke-width="1"/><polyline id="SvgjsPolyline3254" points="354.83,300.61 378.52,273.58 405.45,230.3 422.93,205.92" fill="none" stroke="#000000" stroke-width="1"/><polyline id="SvgjsPolyline3255" points="442.12,210.38 477.02,161.6 523.01,106.22" fill="none" stroke="#000000" stroke-width="1"/><polyline id="SvgjsPolyline3256" points="530.28,105.82 599.71,27.06" fill="none" stroke="#000000" stroke-width="1"/><polyline id="SvgjsPolyline3257" points="301.8,327.91 281.44,340.54 262.09,359.31 246.33,381.2 230.89,410.34 216.3,446.5 202.76,489.4 189.58,541.76 178.14,597.6" fill="none" stroke="#000000" stroke-width="1"/><polyline id="SvgjsPolyline3258" points="72.66,0.41 138.91,46.98 169.81,65.44 199.22,80.39 227.01,91.68 252.9,99.28 276.52,103.47 300.46,104.88 324.4,103.36 350.91,98.35 373.87,91.37 401.62,80.01 431,64.99 459.34,48.09 525.68,1.66" fill="none" stroke="#000000" stroke-width="1"/><polyline id="SvgjsPolyline3259" points="152.71,65.83 197.27,90.58 239.08,107.1 259.43,112.24 280.19,115.38 316.13,115.73 354.4,108.55 393.72,93.9 438.71,69.93 486.25,38.5" fill="none" stroke="#000000" stroke-width="1"/><polyline id="SvgjsPolyline3260" points="310.84,318.36 330.11,310.05 347.64,298.55" fill="none" stroke="#000000" stroke-width="1"/><polyline id="SvgjsPolyline3261" points="298.76,408.38 322.05,373.47 359.81,330.79" fill="none" stroke="#000000" stroke-width="1"/><polyline id="SvgjsPolyline3262" points="294.93,372.93 281.02,392.47 270.54,410.66 250.27,457.42 231.75,517.62 213.4,599.57" fill="none" stroke="#000000" stroke-width="1"/><polyline id="SvgjsPolyline3263" points="299.36,449.32 313.07,419.31 329.48,390.7 381.14,320.73 399.31,293.19 437.91,218.64" fill="none" stroke="#000000" stroke-width="1"/><polyline id="SvgjsPolyline3264" points="299.3,550.64 321.85,472.88 334.79,439.29 350.1,406.72 410.61,303.13 443.35,232.36 459.23,203.45 487.84,161.25 526.84,111.79" fill="none" stroke="#000000" stroke-width="1"/><polyline id="SvgjsPolyline3265" points="327.14,598.88 346.31,517.11 368.21,448.55 387.66,401.41 435.14,301.09 467.9,220.53 486.81,186.43 515.37,144.2 552.01,96.69 598.29,41.54" fill="none" stroke="#000000" stroke-width="1"/><polyline id="SvgjsPolyline3266" points="91.42,0.3 152.16,38.91 206.05,65.19 231.5,74.16 254.75,80.09 275.48,83.41 299.43,84.8 320.4,83.84 344.13,80.32 367.4,74.49 392.89,65.61 417.61,54.76 446.85,39.47 507.65,0.95" fill="none" stroke="#000000" stroke-width="1"/><polyline id="SvgjsPolyline3267" points="294.98,392.58 275.17,429.58 256.85,477.15 240.44,534.85 226.33,599.31" fill="none" stroke="#000000" stroke-width="1"/><polyline id="SvgjsPolyline3268" points="299.61,481.73 314.38,442.42 331.1,407.21 347.96,378.85 375.35,339.44" fill="none" stroke="#000000" stroke-width="1"/><polyline id="SvgjsPolyline3269" points="301.1,417.72 285.49,453.45 271.79,493.14 258.35,542.33 246.13,598" fill="none" stroke="#000000" stroke-width="1"/><polyline id="SvgjsPolyline3270" points="300.63,597.22 319.21,518.39 339.28,455.55 361.96,403.28 398.31,337.69" fill="none" stroke="#000000" stroke-width="1"/><polyline id="SvgjsPolyline3271" points="300.54,501.6 287.57,550.92 277.32,597.81" fill="none" stroke="#000000" stroke-width="1"/><polyline id="SvgjsPolyline3272" points="405.82,335.11 430.06,286.86 456.96,223.35 477.67,186.83" fill="none" stroke="#000000" stroke-width="1"/><polyline id="SvgjsPolyline3273" points="315.43,599.6 332.9,523.59 352.27,460.52 373.72,407.73 406.18,343.47" fill="none" stroke="#000000" stroke-width="1"/><polyline id="SvgjsPolyline3274" points="338.86,598.19 356.97,519.25 377.08,453.26 397.79,400.17 441.96,301.62" fill="none" stroke="#000000" stroke-width="1"/><polyline id="SvgjsPolyline3275" points="449.3,297.31 480.21,216.02 495.54,186.81 516.31,153.82" fill="none" stroke="#000000" stroke-width="1"/><polyline id="SvgjsPolyline3276" points="522.97,153.44 557.76,104.57 598.83,52.92" fill="none" stroke="#000000" stroke-width="1"/><polyline id="SvgjsPolyline3277" points="112.59,1.03 164.74,30.64 211.54,50.83 257.84,63.28 299.62,67.06 341.41,63.41 387.74,51.08 434.57,30.98 486.77,1.43" fill="none" stroke="#000000" stroke-width="1"/><polyline id="SvgjsPolyline3278" points="296.84,455.55 275.89,521.27 258.32,597.25" fill="none" stroke="#000000" stroke-width="1"/><polyline id="SvgjsPolyline3279" points="297.06,559.78 288.92,597.92" fill="none" stroke="#000000" stroke-width="1"/><polyline id="SvgjsPolyline3280" points="350.56,597.48 368.56,518.52 387.38,455.27 407.26,401.86 448.2,305.18" fill="none" stroke="#000000" stroke-width="1"/><polyline id="SvgjsPolyline3281" points="364.84,598.09 385.03,510.4 409.91,430.19 458.77,304.35 487.71,222.32 501.87,192.53 520.01,161.44" fill="none" stroke="#000000" stroke-width="1"/><polyline id="SvgjsPolyline3282" points="385.2,599.17 401.19,525.9 420.27,456.49 499.76,223.73 516.12,188.34 538.75,149.46 567.37,107.26 599.92,64.18" fill="none" stroke="#000000" stroke-width="1"/><polyline id="SvgjsPolyline3283" points="133.74,0.66 179.37,23.39 221.55,39.01 259.51,47.81 298.34,51.07 337.2,48.31 378.14,39.1 420.33,23.52 465.98,0.82" fill="none" stroke="#000000" stroke-width="1"/><polyline id="SvgjsPolyline3284" points="396.91,598.39 412.57,525.05 431.09,455.48 507.47,221.67" fill="none" stroke="#000000" stroke-width="1"/><polyline id="SvgjsPolyline3285" points="513.83,220.17 528.28,187.21 545.45,155.58 569.56,117.59 599.2,76.1" fill="none" stroke="#000000" stroke-width="1"/><polyline id="SvgjsPolyline3286" points="157.42,0.44 196.09,16.79 233.35,28.25 268.75,34.7 301.67,36.54 334.58,34.29 369.89,27.43 407.05,15.63 442.89,0.29" fill="none" stroke="#000000" stroke-width="1"/><polyline id="SvgjsPolyline3287" points="408.61,597.59 424.07,524.21 441.34,457.41 512.67,228.28" fill="none" stroke="#000000" stroke-width="1"/><polyline id="SvgjsPolyline3288" points="423.44,597.47 438.03,526.97 454.73,460.03 525.43,221.3 537.83,190.73 554.17,158.66 574.19,125.2 599.35,87.9" fill="none" stroke="#000000" stroke-width="1"/><polyline id="SvgjsPolyline3289" points="186.4,0.87 214.81,10.47 243.93,17.66 273.59,22.03 300.55,23.28 327.51,21.92 357.16,17.44 383.37,11 414.64,0.48" fill="none" stroke="#000000" stroke-width="1"/><polyline id="SvgjsPolyline3290" points="434.59,599.55 451.36,517.25 471,438.67 529.96,230.89 547.14,186.11" fill="none" stroke="#000000" stroke-width="1"/><polyline id="SvgjsPolyline3291" points="554.54,182.51 573.81,145.2 598.87,104.27" fill="none" stroke="#000000" stroke-width="1"/><polyline id="SvgjsPolyline3292" points="220.8,0.4 259,8.16 297.86,11.05 336.77,8.73 377.97,0.72" fill="none" stroke="#000000" stroke-width="1"/><polyline id="SvgjsPolyline3293" points="446.28,598.65 462.13,519.22 480.38,443.39 537.86,232.08 553.19,189.81" fill="none" stroke="#000000" stroke-width="1"/><polyline id="SvgjsPolyline3294" points="460.48,599.84 473.53,532.09 487.97,467.69 549.39,229.49 558.04,203.92 569.69,176.29 599.29,120.71" fill="none" stroke="#000000" stroke-width="1"/><polyline id="SvgjsPolyline3295" points="472.17,598.87 498.25,469.49 555.87,236.52 566.49,202.14 581.66,166.23" fill="none" stroke="#000000" stroke-width="1"/><polyline id="SvgjsPolyline3296" points="589.03,162.73 599.84,141.31" fill="none" stroke="#000000" stroke-width="1"/><polyline id="SvgjsPolyline3297" points="483.86,597.87 509.39,468.38 565.04,234.93 574.51,203.33 587.97,169.95" fill="none" stroke="#000000" stroke-width="1"/><polyline id="SvgjsPolyline3298" points="497.02,599 521.95,469.39 574.74,238.35 584.81,203.8 599.27,167.6" fill="none" stroke="#000000" stroke-width="1"/><polyline id="SvgjsPolyline3299" points="508.7,597.93 523.5,515.25 543.07,421.27 585.38,230.91 599.76,185.15" fill="none" stroke="#000000" stroke-width="1"/><polyline id="SvgjsPolyline3300" points="519.89,599.78 546.52,455.22 599.52,211.95" fill="none" stroke="#000000" stroke-width="1"/><polyline id="SvgjsPolyline3301" points="531.56,598.63 554.69,468.68 599.6,251.27" fill="none" stroke="#000000" stroke-width="1"/><polyline id="SvgjsPolyline3302" points="543.23,597.46 564.74,473.31 599.55,299.77" fill="none" stroke="#000000" stroke-width="1"/><polyline id="SvgjsPolyline3303" points="554.44,599.21 572.71,489.72 599.88,348.31" fill="none" stroke="#000000" stroke-width="1"/><polyline id="SvgjsPolyline3304" points="566.1,597.96 599.71,402.85" fill="none" stroke="#000000" stroke-width="1"/><polyline id="SvgjsPolyline3305" points="577.31,599.65 599.92,460.47" fill="none" stroke="#000000" stroke-width="1"/><polyline id="SvgjsPolyline3306" points="588.97,598.33 599.79,527.15" fill="none" stroke="#000000" stroke-width="1"/></g></svg>