<!--?xml version="1.0" standalone="no"?-->
              <svg id="sw-js-blob-svg" viewBox="0 0 100 100" xmlns="http://www.w3.org/2000/svg" version="1.1">
                    <defs> 
                        <linearGradient id="sw-gradient" x1="0" x2="1" y1="1" y2="0">
                            <stop id="stop1" stop-color="rgba(255, 149, 5, 1)" offset="0%"></stop>
                            <stop id="stop2" stop-color="rgba(251, 168, 31, 1)" offset="100%"></stop>
                        </linearGradient>
                    </defs>
                <path fill="rgba(255, 149, 5, 1)" d="M20.7,-27.7C27.1,-23.8,32.9,-18.2,34.7,-11.6C36.4,-4.9,34.2,2.7,32.1,10.9C30.1,19,28.2,27.6,22.8,33C17.5,38.4,8.8,40.6,0.6,39.8C-7.5,39,-15.1,35,-22,30.1C-28.8,25.2,-35.1,19.3,-39,11.6C-42.9,4,-44.4,-5.5,-41.3,-12.9C-38.1,-20.2,-30.3,-25.5,-22.6,-29C-14.9,-32.5,-7.5,-34.2,-0.2,-34C7.1,-33.8,14.3,-31.6,20.7,-27.7Z" width="100%" height="100%" transform="translate(50 50)" stroke-width="0" style="transition: 0.3s;" stroke="url(#sw-gradient)"></path>
              </svg>