<!--?xml version="1.0" standalone="no"?-->
              <svg id="sw-js-blob-svg" viewBox="0 0 100 100" xmlns="http://www.w3.org/2000/svg" version="1.1">
                    <defs> 
                        <linearGradient id="sw-gradient" x1="0" x2="1" y1="1" y2="0">
                            <stop id="stop1" stop-color="rgba(19, 78, 45, 1)" offset="0%"></stop>
                            <stop id="stop2" stop-color="rgba(251, 168, 31, 1)" offset="100%"></stop>
                        </linearGradient>
                    </defs>
                <path fill="rgba(19, 78, 45, 1)" d="M19.9,-33.6C26,-30.9,31.3,-26,33.7,-20.1C36.2,-14.1,35.8,-7,35.5,-0.1C35.3,6.8,35.3,13.6,31.7,17.6C28.1,21.5,21,22.7,15.1,22.3C9.2,21.8,4.6,19.7,-1.2,21.9C-7.1,24,-14.2,30.4,-20.1,30.9C-26,31.4,-30.7,25.9,-35.4,19.7C-40.1,13.6,-44.8,6.8,-43.3,0.8C-41.9,-5.2,-34.4,-10.3,-29.3,-15.8C-24.2,-21.2,-21.5,-27,-17.1,-30.6C-12.6,-34.2,-6.3,-35.7,0.3,-36.2C6.9,-36.8,13.8,-36.3,19.9,-33.6Z" width="100%" height="100%" transform="translate(50 50)" stroke-width="0" style="transition: 0.3s;" stroke="url(#sw-gradient)"></path>
              </svg>