<!--?xml version="1.0" standalone="no"?-->
              <svg id="sw-js-blob-svg" viewBox="0 0 100 100" xmlns="http://www.w3.org/2000/svg" version="1.1">
                    <defs> 
                        <linearGradient id="sw-gradient" x1="0" x2="1" y1="1" y2="0">
                            <stop id="stop1" stop-color="rgba(19, 3, 3, 1)" offset="0%"></stop>
                            <stop id="stop2" stop-color="rgba(251, 168, 31, 1)" offset="100%"></stop>
                        </linearGradient>
                    </defs>
                <path fill="rgba(19, 3, 3, 1)" d="M20.8,-27.6C26.8,-24.2,31.4,-18,31.1,-11.8C30.8,-5.6,25.5,0.5,23.9,8.5C22.4,16.6,24.5,26.7,21.1,29.9C17.8,33.1,8.9,29.4,0.1,29.2C-8.6,29,-17.2,32.3,-20.9,29.2C-24.5,26.1,-23.2,16.6,-26.8,8.1C-30.4,-0.4,-38.8,-7.9,-37.7,-12.5C-36.6,-17.2,-25.9,-19.1,-18,-21.9C-10.1,-24.7,-5.1,-28.4,1.2,-30C7.4,-31.6,14.8,-31,20.8,-27.6Z" width="100%" height="100%" transform="translate(50 50)" stroke-width="0" style="transition: 0.3s;" stroke="url(#sw-gradient)"></path>
              </svg>