<!--?xml version="1.0" standalone="no"?-->
              <svg id="sw-js-blob-svg" viewBox="0 0 100 100" xmlns="http://www.w3.org/2000/svg" version="1.1">
                    <defs> 
                        <linearGradient id="sw-gradient" x1="0" x2="1" y1="1" y2="0">
                            <stop id="stop1" stop-color="rgba(255, 149, 5, 1)" offset="0%"></stop>
                            <stop id="stop2" stop-color="rgba(251, 168, 31, 1)" offset="100%"></stop>
                        </linearGradient>
                    </defs>
                <path fill="rgba(255, 149, 5, 1)" d="M22.5,-38.1C29.6,-34.8,36.1,-29.7,40.4,-23.1C44.7,-16.4,46.8,-8.2,46.7,-0.1C46.6,8.1,44.2,16.1,39.9,22.7C35.5,29.3,29.2,34.5,22.2,37.8C15.2,41.2,7.6,42.8,0.1,42.5C-7.4,42.3,-14.7,40.3,-19.6,35.7C-24.5,31.2,-27,24.1,-31.3,17.7C-35.7,11.3,-41.9,5.7,-42.4,-0.3C-43,-6.3,-37.8,-12.6,-32.9,-18C-28,-23.4,-23.4,-27.9,-18,-32.2C-12.5,-36.4,-6.3,-40.3,0.7,-41.6C7.7,-42.8,15.4,-41.3,22.5,-38.1Z" width="100%" height="100%" transform="translate(50 50)" stroke-width="0" style="transition: 0.3s;" stroke="url(#sw-gradient)"></path>
              </svg>